<?xml version="1.0" encoding="UTF-8" standalone="no"?>
<svg
   xmlns:dc="http://purl.org/dc/elements/1.1/"
   xmlns:cc="http://creativecommons.org/ns#"
   xmlns:rdf="http://www.w3.org/1999/02/22-rdf-syntax-ns#"
   xmlns:svg="http://www.w3.org/2000/svg"
   xmlns="http://www.w3.org/2000/svg"
   xmlns:sodipodi="http://sodipodi.sourceforge.net/DTD/sodipodi-0.dtd"
   xmlns:inkscape="http://www.inkscape.org/namespaces/inkscape"
   version="1.1"
   id="Layer_1"
   x="0px"
   y="0px"
   viewBox="0 0 85.675003 128"
   xml:space="preserve"
   sodipodi:docname="eos.svg"
   width="85.675003"
   height="128"
   inkscape:version="0.92.3 (2405546, 2018-03-11)"><defs
     id="defs866" /><sodipodi:namedview
     pagecolor="#ffffff"
     bordercolor="#666666"
     borderopacity="1"
     objecttolerance="10"
     gridtolerance="10"
     guidetolerance="10"
     inkscape:pageopacity="0"
     inkscape:pageshadow="2"
     inkscape:window-width="1920"
     inkscape:window-height="1001"
     id="namedview864"
     showgrid="false"
     fit-margin-top="0"
     fit-margin-left="0"
     fit-margin-right="0"
     fit-margin-bottom="0"
     inkscape:object-paths="true"
     inkscape:zoom="3.6875"
     inkscape:cx="-26.952962"
     inkscape:cy="38.665319"
     inkscape:window-x="-9"
     inkscape:window-y="-9"
     inkscape:window-maximized="1"
     inkscape:current-layer="Layer_1" /><style
     type="text/css"
     id="style857">.st0{fill:#2D2C2C;}</style><path
     style="fill:#2d2c2c"
     d="m 43.352085,-0.43145499 c -0.6,0 -1.201562,0.30078125 -1.601562,0.80078125 l -27.5,37.59960974 c -0.2,0.2 -0.298438,0.498828 -0.398438,0.798828 L 0.55130359,99.568545 v 0.900395 c 0.0715428,0.58764 0.49376661,0.89087 0.90039061,1.19922 l 40.7988288,25.59961 c 0.3,0.2 0.701562,0.30078 1.101562,0.30078 0.4,0 0.69961,-0.10078 1.09961,-0.30078 l 40.798828,-25.59961 h 0.101562 c 0.3,-0.2 0.499219,-0.49883 0.699219,-0.79883 0.1,-0.1 0.09961,-0.30039 0.09961,-0.40039 0.1,-0.2 0.1,-0.500785 0,-0.800785 L 72.852085,38.767764 c -0.1,-0.3 -0.20039,-0.598828 -0.40039,-0.798828 l -27.5,-37.59960974 c -0.4,-0.5 -0.99961,-0.80078125 -1.59961,-0.80078125 z m -2,8.09960939 2.10502,-2.7325482 1.89498,2.7325482 23.298828,31.9003906 -5.90039,18.599609 -1.59961,5.09961 -11,34.701172 -1.298828,4.000004 -5.5,17.09961 -5.40039,-17.09961 -1.300782,-4.000004 -11,-34.701172 -1.699218,-5.199219 -5.900391,-18.5 z M 70.551304,46.767764 c 3.678282,17.039682 8.058718,33.896913 10.199219,51.201172 l 0.08741,1.454706 -3.587414,2.545298 -30.298828,19 6,-19 1.298828,-4.000004 9.5,-30 1.701172,-5.201172 z m -54.400391,0.101562 5.09961,16 1.701172,5.199219 9.5,30 1.298828,3.900395 6,19 C 28.548266,113.60504 16.734859,107.1503 5.8071124,99.376127 7.6048546,81.907759 12.277435,64.581753 16.150913,46.869326 Z"
     id="path859"
     inkscape:connector-curvature="0"
     sodipodi:nodetypes="scccccccscccccccccsccccccccccccccccccccccccccccccccc" /><metadata
     id="metadata861"><rdf:RDF><rdf:Description
         about="https://iconscout.com/legal#licenses"
         dc:title="eos"
         dc:description="eos"
         dc:publisher="Iconscout"
         dc:date="2018-01-14"
         dc:format="image/svg+xml"
         dc:language="en"><dc:creator><rdf:Bag><rdf:li>Icon Mafia</rdf:li></rdf:Bag></dc:creator></rdf:Description><cc:Work
         rdf:about=""><dc:format>image/svg+xml</dc:format><dc:type
           rdf:resource="http://purl.org/dc/dcmitype/StillImage" /><dc:title></dc:title></cc:Work></rdf:RDF></metadata></svg>