<?xml version="1.0" encoding="UTF-8" standalone="no"?>
<!-- Created with Inkscape (http://www.inkscape.org/) -->

<svg
   xmlns:dc="http://purl.org/dc/elements/1.1/"
   xmlns:cc="http://creativecommons.org/ns#"
   xmlns:rdf="http://www.w3.org/1999/02/22-rdf-syntax-ns#"
   xmlns:svg="http://www.w3.org/2000/svg"
   xmlns="http://www.w3.org/2000/svg"
   xmlns:sodipodi="http://sodipodi.sourceforge.net/DTD/sodipodi-0.dtd"
   xmlns:inkscape="http://www.inkscape.org/namespaces/inkscape"
   width="301.54733mm"
   height="55.489506mm"
   viewBox="0 0 301.54729 55.489506"
   version="1.1"
   id="svg8"
   inkscape:version="0.92.3 (2405546, 2018-03-11)"
   sodipodi:docname="TokenLauncherGreen.svg">
  <defs
     id="defs2" />
  <sodipodi:namedview
     id="base"
     pagecolor="#ffffff"
     bordercolor="#666666"
     borderopacity="1.0"
     inkscape:pageopacity="0.0"
     inkscape:pageshadow="2"
     inkscape:zoom="0.80587231"
     inkscape:cx="470.01287"
     inkscape:cy="-177.17265"
     inkscape:document-units="mm"
     inkscape:current-layer="layer1"
     showgrid="false"
     showguides="true"
     inkscape:guide-bbox="true"
     inkscape:window-width="1920"
     inkscape:window-height="1001"
     inkscape:window-x="-9"
     inkscape:window-y="-9"
     inkscape:window-maximized="1"
     fit-margin-left="0"
     fit-margin-top="0"
     fit-margin-right="0"
     fit-margin-bottom="0" />
  <metadata
     id="metadata5">
    <rdf:RDF>
      <cc:Work
         rdf:about="">
        <dc:format>image/svg+xml</dc:format>
        <dc:type
           rdf:resource="http://purl.org/dc/dcmitype/StillImage" />
        <dc:title />
      </cc:Work>
    </rdf:RDF>
  </metadata>
  <g
     inkscape:label="Layer 1"
     inkscape:groupmode="layer"
     id="layer1"
     transform="translate(-40.644972,-104.49296)">
    <path
       style="fill:#608d93;fill-opacity:1;stroke:#ffffff;stroke-width:0;stroke-miterlimit:4;stroke-dasharray:none"
       d="m 64.316637,159.70434 c -8.739323,-1.2382 -17.230413,-7.61652 -21.148601,-15.8864 -1.810014,-3.82027 -2.472913,-6.84126 -2.519294,-11.48106 -0.02217,-2.21698 0.05577,-4.12696 0.173185,-4.2444 0.409939,-0.41001 11.880702,-3.27665 12.045467,-3.01026 0.0914,0.14777 1.785957,6.86458 3.765689,14.92624 2.745495,11.17995 3.712249,14.65759 4.074684,14.65759 0.261347,0 2.612295,-0.51319 5.224329,-1.14041 3.093248,-0.74279 4.749158,-1.28436 4.749158,-1.55323 0,-0.22705 -1.62552,-7.01643 -3.612253,-15.0875 l -3.612252,-14.67467 0.986848,-0.26593 c 0.542766,-0.14627 3.044642,-0.75288 5.559727,-1.34802 2.82443,-0.66835 4.63851,-1.25312 4.74453,-1.52941 0.1707,-0.44484 -1.44193,-7.67422 -1.8643,-8.35764 -0.18768,-0.30366 -13.463628,2.71944 -25.98427,5.91695 -1.658879,0.42364 -1.663651,0.4227 -1.312415,-0.25912 0.798113,-1.54928 6.538435,-6.75101 8.965291,-8.12411 8.025364,-4.54068 17.302244,-4.97816 25.476514,-1.20141 7.57719,3.50087 13.43613,10.49915 15.46952,18.47772 0.48489,1.90262 0.64151,3.55067 0.64151,6.75014 v 4.23294 l -1.19336,0.31714 c -1.32737,0.35276 -14.42998,3.52616 -14.55909,3.52616 -0.045,0 -1.19256,-4.44721 -2.55019,-9.88268 -1.57636,-6.3112 -2.59662,-9.83393 -2.82317,-9.74779 -0.19511,0.0742 -2.35961,0.60182 -4.80999,1.17248 -2.450375,0.57067 -4.590463,1.16146 -4.75575,1.31287 -0.185276,0.16973 1.03428,5.70657 3.18023,14.43837 2.82118,11.47932 3.57936,14.16307 4.00117,14.16307 0.28623,0 4.63371,-1.01167 9.66106,-2.24815 5.02735,-1.23649 9.20248,-2.18632 9.27806,-2.11074 0.25228,0.25229 -2.29417,3.22069 -4.55828,5.31358 -5.99613,5.54269 -14.41612,8.12047 -22.693757,6.94768 z"
       id="path838"
       inkscape:connector-curvature="0" />
    <text
       xml:space="preserve"
       style="font-style:normal;font-variant:normal;font-weight:800;font-stretch:normal;font-size:29.98611069px;line-height:1.25;font-family:'Work Sans';-inkscape-font-specification:'Work Sans, Ultra-Bold';font-variant-ligatures:normal;font-variant-caps:normal;font-variant-numeric:normal;font-feature-settings:normal;text-align:start;letter-spacing:0px;word-spacing:0px;writing-mode:lr-tb;text-anchor:start;fill:#608d93;fill-opacity:1;stroke:#ffffff;stroke-width:0;stroke-miterlimit:4;stroke-dasharray:none;paint-order:stroke fill markers;"
       x="107.23545"
       y="142.67288"
       id="text844"><tspan
         sodipodi:role="line"
         id="tspan842"
         x="107.23545"
         y="142.67288"
         style="font-style:normal;font-variant:normal;font-weight:800;font-stretch:normal;font-size:29.98611069px;font-family:'Work Sans';-inkscape-font-specification:'Work Sans, Ultra-Bold';font-variant-ligatures:normal;font-variant-caps:normal;font-variant-numeric:normal;font-feature-settings:normal;text-align:start;writing-mode:lr-tb;text-anchor:start;fill:#608d93;fill-opacity:1;stroke:#ffffff;stroke-width:0;stroke-miterlimit:4;stroke-dasharray:none;paint-order:stroke fill markers;">Token</tspan></text>
    <text
       xml:space="preserve"
       style="font-style:normal;font-variant:normal;font-weight:800;font-stretch:normal;font-size:29.98611069px;line-height:1.25;font-family:'Work Sans';-inkscape-font-specification:'Work Sans, Ultra-Bold';font-variant-ligatures:normal;font-variant-caps:normal;font-variant-numeric:normal;font-feature-settings:normal;text-align:start;letter-spacing:0px;word-spacing:0px;writing-mode:lr-tb;text-anchor:start;fill:#608d93;fill-opacity:1;stroke:#ffffff;stroke-width:0;stroke-miterlimit:4;stroke-dasharray:none;paint-order:stroke fill markers;"
       x="202.96445"
       y="142.67288"
       id="text848"><tspan
         sodipodi:role="line"
         id="tspan846"
         x="202.96445"
         y="142.67288"
         style="font-style:normal;font-variant:normal;font-weight:800;font-stretch:normal;font-size:29.98611069px;font-family:'Work Sans';-inkscape-font-specification:'Work Sans, Ultra-Bold';font-variant-ligatures:normal;font-variant-caps:normal;font-variant-numeric:normal;font-feature-settings:normal;text-align:start;writing-mode:lr-tb;text-anchor:start;fill:#608d93;fill-opacity:1;stroke:#ffffff;stroke-width:0;stroke-miterlimit:4;stroke-dasharray:none;paint-order:stroke fill markers;">Launcher</tspan></text>
    <flowRoot
       xml:space="preserve"
       id="flowRoot839"
       style="font-style:normal;font-weight:normal;font-size:40px;line-height:1.25;font-family:sans-serif;letter-spacing:0px;word-spacing:0px;fill:#000000;fill-opacity:1;stroke:none"
       transform="matrix(0.26458333,0,0,0.26458333,40.644972,104.49296)"><flowRegion
         id="flowRegion841"><rect
           id="rect843"
           width="37.226742"
           height="130.29359"
           x="388.39899"
           y="176.22005" /></flowRegion><flowPara
         id="flowPara845" /></flowRoot>  </g>
</svg>
